<svg width="69" height="21" viewBox="0 0 69 21" fill="none" xmlns="http://www.w3.org/2000/svg">
<path d="M8.77789 0.562669L0.564298 8.71345C-0.188099 9.46459 -0.188099 10.6838 0.564298 11.4324L8.77789 19.5881C9.5366 20.3392 10.7646 20.3354 11.5233 19.5881C12.2744 18.8357 12.2744 17.6215 11.5233 16.8691L6.71818 12.1016H22.1324C23.2459 12.1016 24.1467 11.202 24.1467 10.0885C24.1467 8.97625 23.2459 8.07537 22.1324 8.07537H6.68919L11.5233 3.28282C12.2744 2.53168 12.2744 1.31623 11.5233 0.565085C10.7658 -0.187313 9.53783 -0.188569 8.77789 0.562568V0.562669Z" fill="white"/>
<path d="M59.8668 19.5874L68.0804 11.4366C68.8328 10.6854 68.8328 9.46621 68.0804 8.71758L59.8668 0.561968C59.1081 -0.189173 57.88 -0.185404 57.1214 0.561968C56.3702 1.31437 56.3702 2.52856 57.1214 3.28096L61.9265 8.04838L46.5123 8.04838C45.3988 8.04838 44.4979 8.94802 44.4979 10.0615C44.4979 11.1738 45.3988 12.0747 46.5123 12.0747L61.9555 12.0747L57.1214 16.8672C56.3702 17.6183 56.3702 18.8338 57.1214 19.5849C57.8788 20.3373 59.1068 20.3386 59.8668 19.5875V19.5874Z" fill="white"/>
</svg>
